<?xml version="1.0" standalone="no"?>
<!DOCTYPE svg PUBLIC "-//W3C//DTD SVG 20010904//EN"
 "http://www.w3.org/TR/2001/REC-SVG-20010904/DTD/svg10.dtd">
<svg version="1.0" xmlns="http://www.w3.org/2000/svg"
 width="512.000000pt" height="512.000000pt" viewBox="0 0 512.000000 512.000000"
 preserveAspectRatio="xMidYMid meet">
<metadata>
Created by potrace 1.11, written by Peter Selinger 2001-2013
</metadata>
<g transform="translate(0.000000,512.000000) scale(0.100000,-0.100000)"
fill="#000000" stroke="none">
<path d="M852 4839 c-74 -12 -188 -58 -254 -103 -71 -47 -176 -157 -216 -227
-17 -30 -43 -90 -59 -134 l-28 -80 -3 -1655 c-2 -1126 1 -1677 8 -1724 13 -87
56 -196 104 -269 21 -31 86 -106 145 -165 94 -96 117 -114 201 -156 165 -81
34 -76 1885 -76 1850 0 1720 -5 1883 76 131 64 232 165 296 296 81 163 76 33
76 1883 0 1851 5 1720 -76 1885 -42 84 -60 107 -156 201 -59 59 -134 124 -165
145 -71 47 -180 90 -264 103 -80 13 -3299 13 -3377 0z m2708 -928 c0 -5 9 -11
21 -14 11 -3 23 -15 26 -26 3 -12 9 -21 13 -21 5 0 14 -26 20 -57 6 -32 15
-65 19 -74 5 -8 14 -42 21 -75 7 -32 15 -63 19 -69 6 -9 17 -55 56 -220 9 -38
18 -74 20 -80 1 -5 2 -13 1 -16 0 -3 4 -12 11 -20 6 -8 14 -35 18 -62 4 -26
11 -50 16 -52 4 -3 6 -12 2 -20 -3 -9 -1 -21 4 -28 6 -6 16 -41 23 -77 7 -36
16 -69 19 -75 3 -5 11 -28 16 -50 l10 -40 60 -5 c74 -7 98 -19 119 -64 14 -30
16 -88 16 -474 0 -288 -4 -443 -10 -447 -6 -4 -8 -11 -4 -16 7 -13 -34 -59
-53 -59 -7 0 -13 -4 -13 -10 0 -6 -28 -10 -65 -10 l-65 0 0 -214 0 -214 -44
-11 c-65 -16 -376 -14 -398 3 -16 12 -18 35 -18 225 l0 211 -840 0 -840 0 0
-214 0 -214 -27 -10 c-43 -14 -344 -15 -392 -1 l-41 12 0 214 0 213 -60 0
c-33 0 -60 4 -60 9 0 5 -11 12 -24 15 -13 3 -32 18 -42 33 -18 26 -19 55 -19
492 0 363 3 465 13 469 6 2 12 10 12 18 0 19 64 44 116 44 48 0 57 9 69 75 4
22 10 45 15 50 4 6 13 43 20 83 7 39 16 72 20 72 4 0 13 30 20 68 7 37 16 72
20 77 5 6 14 39 20 75 7 36 17 70 22 77 5 6 8 17 7 25 -1 7 0 20 4 28 3 8 11
40 18 70 6 30 15 60 19 65 4 6 13 42 20 80 7 39 16 75 20 80 4 6 11 30 15 55
6 33 17 54 42 78 l34 32 980 0 c560 0 979 -4 979 -9z"/>
<path d="M1700 3803 c-23 -8 -60 -45 -60 -59 0 -7 -4 -14 -10 -16 -5 -1 -15
-30 -22 -63 -6 -33 -14 -62 -18 -65 -4 -3 -12 -34 -19 -70 -7 -36 -16 -69 -21
-75 -4 -5 -13 -41 -20 -80 -7 -38 -16 -74 -20 -80 -4 -5 -13 -39 -20 -75 -7
-36 -16 -69 -21 -75 -9 -13 -39 -168 -39 -205 0 -16 11 -42 26 -59 25 -30 28
-31 109 -31 l84 0 7 38 c4 20 10 42 14 47 3 6 12 29 19 52 17 62 104 148 162
162 24 6 58 16 75 21 39 13 111 13 119 0 3 -5 17 -10 31 -10 99 0 217 -132
239 -267 l7 -43 54 0 c51 0 54 2 54 24 0 14 -4 27 -8 30 -5 3 -14 31 -22 63
-7 32 -19 67 -26 78 -23 32 -16 59 24 98 47 46 84 57 187 57 103 0 140 -11
187 -57 43 -42 46 -53 19 -97 -11 -17 -22 -48 -26 -68 -4 -21 -11 -38 -16 -38
-5 0 -9 -20 -9 -44 l0 -44 48 -4 c52 -5 61 2 62 47 1 29 34 105 74 170 26 42
95 84 150 91 26 4 49 11 52 15 7 12 80 11 102 0 9 -6 39 -13 65 -16 28 -4 50
-12 54 -21 3 -8 11 -14 17 -14 15 0 76 -62 76 -77 0 -6 6 -13 14 -16 8 -3 17
-21 21 -39 4 -18 11 -38 17 -44 5 -7 8 -16 7 -20 -1 -5 1 -16 4 -24 3 -8 7
-24 9 -35 3 -18 10 -19 78 -17 86 3 126 17 134 47 14 49 1 163 -24 220 -5 11
-15 49 -21 85 -7 36 -15 67 -19 70 -4 3 -12 34 -19 70 -7 36 -16 70 -21 75 -4
6 -13 42 -20 80 -7 39 -16 75 -20 80 -4 6 -13 39 -20 75 -7 36 -16 67 -19 70
-4 3 -12 17 -18 31 -6 14 -27 33 -46 42 -32 15 -114 17 -899 16 -474 0 -870
-3 -878 -6z m346 -91 c5 -4 26 -14 47 -21 43 -14 74 -42 105 -94 28 -48 36
-95 28 -161 -6 -45 -15 -63 -48 -101 -68 -78 -110 -98 -197 -98 -40 1 -76 5
-80 11 -3 5 -16 12 -28 16 -27 8 -103 90 -103 111 0 8 -5 15 -10 15 -6 0 -10
6 -9 13 1 6 -1 20 -6 30 -12 29 1 108 27 156 26 48 80 96 121 106 15 4 30 11
33 16 7 11 107 12 120 1z m1189 -1 c3 -5 19 -12 36 -16 75 -17 149 -126 149
-221 0 -29 -4 -55 -9 -58 -4 -3 -11 -18 -14 -34 -7 -33 -92 -122 -117 -122
-10 0 -20 -5 -22 -12 -3 -8 -29 -12 -79 -12 -60 0 -82 5 -113 24 -93 57 -129
116 -130 214 0 57 4 79 22 107 30 50 107 119 131 119 11 0 23 5 26 10 8 13
112 13 120 1z m-572 -27 c47 -16 117 -81 117 -108 0 -8 5 -16 11 -18 14 -5 15
-126 0 -141 -6 -6 -11 -19 -11 -29 0 -21 -65 -88 -84 -88 -8 0 -16 -5 -18 -11
-2 -6 -34 -13 -70 -16 -56 -5 -74 -2 -110 17 -84 43 -128 110 -128 195 0 151
144 250 293 199z"/>
<path d="M3615 2490 c-34 -3 -62 -14 -88 -34 -44 -34 -87 -117 -87 -168 0 -38
35 -118 56 -131 8 -4 14 -13 14 -20 2 -34 177 -77 195 -47 3 6 13 10 22 10 24
0 78 45 103 85 30 49 30 151 -1 203 -21 35 -75 92 -88 92 -3 0 -22 4 -41 8
-19 4 -57 5 -85 2z"/>
<path d="M1428 2483 c-10 -2 -18 -9 -18 -14 0 -6 -4 -8 -9 -5 -14 9 -78 -71
-85 -106 -10 -51 -7 -117 7 -151 16 -36 89 -107 112 -107 8 0 15 -4 15 -10 0
-6 27 -10 60 -10 33 0 60 4 60 9 0 5 13 11 28 14 35 7 80 48 104 95 49 97 -6
244 -105 281 -28 11 -135 13 -169 4z"/>
</g>
</svg>
