<svg id="Layer_1" enable-background="new 0 0 256 256" height="512" viewBox="0 0 256 256" width="512" xmlns="http://www.w3.org/2000/svg"><path d="m229.12 116.968h-202.24l24.45-84.674c1.236-4.28 5.153-7.226 9.607-7.226h134.126c4.454 0 8.372 2.946 9.607 7.226z" fill="#f4efed"/><path d="m150.682 93.262h-5.232-9.402c.009-.15.023-.299.023-.452v-14.726h-16.142v14.726c0 .153.014.302.023.452h-9.402-5.232c-5.652 0-10.234 4.582-10.234 10.234v13.32h65.832v-13.32c0-5.652-4.582-10.234-10.234-10.234z" fill="#7bac51"/><path d="m136.056 93.227.015-15.143h-16.142l.015 15.143c.005 4.446 3.61 8.048 8.056 8.048 4.446-.001 8.051-3.602 8.056-8.048z" fill="#e18152"/><path d="m160.916 118.816h-65.832c-1.104 0-2-.896-2-2v-13.32c0-6.746 5.488-12.234 12.234-12.234h12.611v-13.178c0-1.104.896-2 2-2h16.142c1.104 0 2 .896 2 2v13.178h12.611c6.746 0 12.234 5.488 12.234 12.234v13.32c0 1.105-.896 2-2 2zm-63.832-4h61.832v-11.32c0-4.541-3.694-8.234-8.234-8.234h-14.634c-.551 0-1.077-.227-1.455-.627-.378-.401-.574-.939-.542-1.489l.009-.143c.004-.063.01-.127.01-.192v-12.727h-12.142v12.726c0 .065.006.128.01.192l.009.143c.032.55-.164 1.088-.542 1.489-.378.4-.904.627-1.455.627h-14.634c-4.541 0-8.234 3.694-8.234 8.234v11.321z" fill="#690589"/><path d="m128 103.274c-5.539 0-10.05-4.506-10.056-10.046l-.015-15.143c0-.531.21-1.04.585-1.415.375-.376.884-.586 1.415-.586h16.142c.531 0 1.04.211 1.415.586s.586.885.585 1.415l-.015 15.143c-.006 5.54-4.517 10.046-10.056 10.046zm-6.069-23.19.013 13.141c.003 3.336 2.72 6.05 6.056 6.05s6.052-2.714 6.056-6.05l.013-13.141z" fill="#690589"/><path d="m128 88.5c-9.637 0-17.45-7.914-17.45-17.676v-12.238c0-9.762 7.812-17.676 17.45-17.676 9.637 0 17.45 7.914 17.45 17.676v12.237c0 9.763-7.813 17.677-17.45 17.677z" fill="#ff9f70"/><path d="m128 90.499c-10.725 0-19.45-8.827-19.45-19.676v-12.237c0-10.849 8.725-19.676 19.45-19.676s19.45 8.827 19.45 19.676v12.237c0 10.85-8.725 19.676-19.45 19.676zm0-47.589c-8.519 0-15.45 7.032-15.45 15.676v12.237c0 8.644 6.931 15.676 15.45 15.676s15.45-7.032 15.45-15.676v-12.237c0-8.644-6.931-15.676-15.45-15.676z" fill="#690589"/><path d="m204.671 32.294c-1.236-4.28-5.153-7.226-9.607-7.226h-10c4.454 0 8.372 2.946 9.607 7.226l24.45 84.674h10z" fill="#d6d1cf"/><path d="m51.329 32.294c1.236-4.28 5.153-7.226 9.607-7.226h10c-4.454 0-8.372 2.946-9.607 7.226l-24.45 84.674h-10z" fill="#fff"/><path d="m237.402 193.684h-218.804c-8.062 0-14.598-6.536-14.598-14.598v-47.519c0-8.062 6.536-14.599 14.598-14.599h218.803c8.063 0 14.598 6.536 14.598 14.599v47.519c.001 8.062-6.535 14.598-14.597 14.598z" fill="#7bac51"/><path d="m237.402 116.968h-10c8.063 0 14.598 6.536 14.598 14.599v47.519c0 8.062-6.536 14.599-14.598 14.599h10c8.063 0 14.598-6.536 14.598-14.599v-47.519c0-8.063-6.536-14.599-14.598-14.599z" fill="#5d8e33"/><path d="m193.039 174.322h58.961v-37.992h-20.969c-20.983 0-37.992 17.01-37.992 37.992z" fill="#fcc24c"/><path d="m103.137 93.262h-5.232-9.402c.009-.15.023-.299.023-.452v-14.726h-16.142v14.726c0 .153.015.302.023.452h-9.402-5.232c-5.652 0-10.234 4.582-10.234 10.234v13.32h65.832v-13.32c0-5.652-4.582-10.234-10.234-10.234z" fill="#7bac51"/><path d="m103.137 93.262h-5.232-3.035c5.652 0 10.234 4.582 10.234 10.234v13.32h8.268v-13.32c-.001-5.652-4.583-10.234-10.235-10.234z" fill="#5d8e33"/><path d="m57.773 93.262h5.232 3.035c-5.652 0-10.234 4.582-10.234 10.234v13.32h-8.268v-13.32c0-5.652 4.582-10.234 10.235-10.234z" fill="#99ca6f"/><path d="m88.51 93.227.015-15.143h-16.141l.015 15.143c.004 4.446 3.61 8.048 8.056 8.048 4.446-.001 8.051-3.602 8.055-8.048z" fill="#e18152"/><path d="m113.371 118.816h-65.832c-1.104 0-2-.896-2-2v-13.32c0-6.746 5.488-12.234 12.234-12.234h12.611v-13.178c0-1.104.896-2 2-2h16.142c1.104 0 2 .896 2 2v13.178h12.611c6.746 0 12.234 5.488 12.234 12.234v13.32c0 1.105-.895 2-2 2zm-63.832-4h61.832v-11.32c0-4.541-3.694-8.234-8.234-8.234h-14.635c-.551 0-1.077-.227-1.455-.627-.378-.401-.574-.939-.542-1.489l.009-.143c.004-.063.01-.127.01-.192v-12.727h-12.14v12.726c0 .065.006.128.01.192l.009.143c.032.55-.164 1.088-.541 1.489-.378.4-.904.627-1.455.627h-14.634c-4.541 0-8.234 3.694-8.234 8.234z" fill="#690589"/><path d="m80.455 103.274c-5.539 0-10.05-4.506-10.056-10.046l-.015-15.143c0-.531.21-1.04.585-1.415.376-.376.884-.586 1.415-.586h16.142c.531 0 1.04.211 1.415.586s.586.885.585 1.415l-.016 15.144c-.005 5.539-4.516 10.045-10.055 10.045zm-6.069-23.19.013 13.141c.003 3.336 2.72 6.05 6.056 6.05s6.052-2.714 6.056-6.05l.013-13.141z" fill="#690589"/><path d="m80.455 88.5c-9.637 0-17.45-7.914-17.45-17.676v-12.238c0-9.762 7.812-17.676 17.45-17.676 9.637 0 17.45 7.914 17.45 17.676v12.237c-.001 9.763-7.813 17.677-17.45 17.677z" fill="#ff9f70"/><path d="m80.455 90.499c-10.725 0-19.45-8.827-19.45-19.676v-12.237c0-10.849 8.725-19.676 19.45-19.676s19.45 8.827 19.45 19.676v12.237c-.001 10.85-8.726 19.676-19.45 19.676zm0-47.589c-8.519 0-15.45 7.032-15.45 15.676v12.237c0 8.644 6.931 15.676 15.45 15.676s15.45-7.032 15.45-15.676v-12.237c-.001-8.644-6.931-15.676-15.45-15.676z" fill="#690589"/><path d="m198.227 93.262h-5.232-9.402c.009-.15.023-.299.023-.452v-14.726h-16.142v14.726c0 .153.015.302.023.452h-9.402-5.232c-5.652 0-10.234 4.582-10.234 10.234v13.32h65.832v-13.32c.001-5.652-4.581-10.234-10.234-10.234z" fill="#7bac51"/><path d="m198.227 93.262h-5.232-3.035c5.652 0 10.234 4.582 10.234 10.234v13.32h8.268v-13.32c0-5.652-4.582-10.234-10.235-10.234z" fill="#5d8e33"/><path d="m152.863 93.262h5.232 3.035c-5.652 0-10.234 4.582-10.234 10.234v13.32h-8.268v-13.32c.001-5.652 4.583-10.234 10.235-10.234z" fill="#99ca6f"/><path d="m183.601 93.227.015-15.143h-16.142l.015 15.143c.005 4.446 3.61 8.048 8.056 8.048 4.446-.001 8.052-3.602 8.056-8.048z" fill="#e18152"/><path d="m208.461 118.816h-65.832c-1.105 0-2-.896-2-2v-13.32c0-6.746 5.488-12.234 12.234-12.234h12.611v-13.178c0-1.104.896-2 2-2h16.142c1.105 0 2 .896 2 2v13.178h12.611c6.746 0 12.234 5.488 12.234 12.234v13.32c0 1.105-.895 2-2 2zm-63.832-4h61.832v-11.32c0-4.541-3.694-8.234-8.234-8.234h-14.634c-.55 0-1.075-.226-1.453-.626-.378-.399-.575-.936-.544-1.485l.01-.162c.004-.06.01-.119.01-.18v-12.725h-12.142v12.726c0 .065.006.128.01.192l.009.143c.032.55-.164 1.088-.541 1.489-.378.4-.904.627-1.455.627h-14.634c-4.54 0-8.234 3.694-8.234 8.234z" fill="#690589"/><path d="m175.545 103.274c-5.539 0-10.05-4.506-10.056-10.046l-.015-15.143c0-.531.21-1.04.585-1.415.376-.376.884-.586 1.415-.586h16.142c.531 0 1.04.211 1.415.586s.585.885.585 1.415l-.015 15.143c-.005 5.54-4.516 10.046-10.056 10.046zm-6.068-23.19.013 13.141c.004 3.336 2.72 6.05 6.056 6.05s6.052-2.714 6.056-6.05l.013-13.141z" fill="#690589"/><path d="m175.545 88.5c-9.637 0-17.45-7.914-17.45-17.676v-12.238c0-9.762 7.812-17.676 17.45-17.676 9.637 0 17.45 7.914 17.45 17.676v12.237c0 9.763-7.813 17.677-17.45 17.677z" fill="#ff9f70"/><path d="m175.545 90.499c-10.725 0-19.45-8.827-19.45-19.676v-12.237c0-10.849 8.725-19.676 19.45-19.676s19.45 8.827 19.45 19.676v12.237c0 10.85-8.725 19.676-19.45 19.676zm0-47.589c-8.519 0-15.45 7.032-15.45 15.676v12.237c0 8.644 6.931 15.676 15.45 15.676s15.45-7.032 15.45-15.676v-12.237c0-8.644-6.931-15.676-15.45-15.676z" fill="#690589"/><path d="m229.121 118.968h-202.242c-.628 0-1.221-.295-1.599-.798-.378-.502-.497-1.153-.323-1.757l24.45-84.674c1.474-5.105 6.215-8.671 11.529-8.671h134.126c5.314 0 10.055 3.566 11.529 8.671l24.45 84.674c.174.604.055 1.254-.323 1.757-.377.503-.969.798-1.597.798zm-199.582-4h196.923l-23.712-82.12c-.983-3.404-4.143-5.781-7.686-5.781h-134.127c-3.542 0-6.703 2.377-7.686 5.781z" fill="#690589"/><path d="m52.305 60.708c-.184 0-.371-.025-.556-.079-1.062-.306-1.673-1.415-1.367-2.476l3.465-12c.306-1.061 1.417-1.676 2.476-1.367 1.062.306 1.673 1.415 1.367 2.476l-3.465 12c-.253.876-1.052 1.446-1.92 1.446z" fill="#690589"/><path d="m51.125 118.968c-1 0-1.864-.749-1.984-1.767-.129-1.097.656-2.091 1.753-2.22l76.873-9.033c1.101-.126 2.091.657 2.22 1.753.129 1.097-.656 2.091-1.753 2.22l-76.873 9.033c-.079.01-.158.014-.236.014z" fill="#690589"/><path d="m61.929 230.932h-26.715c-5.523 0-10-4.477-10-10v-27.248h46.715v27.248c0 5.523-4.477 10-10 10z" fill="#ff4397"/><path d="m220.786 230.932h-26.715c-5.523 0-10-4.477-10-10v-27.248h46.715v27.248c0 5.523-4.477 10-10 10z" fill="#ff4397"/><path d="m62.961 174.322h-58.961v-37.992h20.969c20.982 0 37.992 17.01 37.992 37.992z" fill="#fcc24c"/><path d="m242 136.33h10v37.992h-10z" fill="#dea42e"/><path d="m18.598 116.968h10c-8.063 0-14.598 6.536-14.598 14.599v47.519c0 8.062 6.536 14.599 14.598 14.599h-10c-8.062-.001-14.598-6.537-14.598-14.599v-47.519c0-8.063 6.536-14.599 14.598-14.599z" fill="#99ca6f"/><path d="m4 136.33h10v37.992h-10z" fill="#fce06a"/><g fill="#690589"><path d="m61.929 232.932h-26.715c-6.617 0-12-5.383-12-12v-27.248c0-1.104.896-2 2-2h46.715c1.104 0 2 .896 2 2v27.248c0 6.617-5.383 12-12 12zm-34.715-37.248v25.248c0 4.411 3.589 8 8 8h26.715c4.411 0 8-3.589 8-8v-25.248z"/><path d="m220.786 232.932h-26.715c-6.617 0-12-5.383-12-12v-27.248c0-1.104.895-2 2-2h46.715c1.104 0 2 .896 2 2v27.248c0 6.617-5.383 12-12 12zm-34.715-37.248v25.248c0 4.411 3.589 8 8 8h26.715c4.411 0 8-3.589 8-8v-25.248z"/><path d="m237.401 195.684h-218.802c-9.153 0-16.599-7.446-16.599-16.598v-47.519c0-9.152 7.446-16.599 16.599-16.599h218.803c9.152 0 16.599 7.446 16.599 16.599v47.519c-.001 9.152-7.447 16.598-16.6 16.598zm-218.802-76.716c-6.947 0-12.599 5.652-12.599 12.599v47.519c0 6.947 5.652 12.598 12.599 12.598h218.803c6.947 0 12.599-5.651 12.599-12.598v-47.519c0-6.947-5.652-12.599-12.599-12.599z"/><path d="m62.961 176.322h-58.961c-1.105 0-2-.895-2-2v-37.992c0-1.104.895-2 2-2h20.969c22.051 0 39.992 17.94 39.992 39.992 0 1.105-.896 2-2 2zm-56.961-4h54.906c-1.042-18.919-16.762-33.992-35.937-33.992h-18.969z"/><path d="m252 176.322h-58.961c-1.105 0-2-.895-2-2 0-22.052 17.812-39.992 39.705-39.992h20.969c1.099 0 1.992.886 2 1.985l.287 37.992c.004.533-.205 1.046-.581 1.424-.375.378-.886.591-1.419.591zm-56.907-4h54.892l-.257-33.992h-18.984c-19.022 0-34.618 15.073-35.651 33.992z"/></g><path d="m174.071 162.481h-92.142c-5.523 0-10 4.477-10 10v21.204h112.141v-21.204c.001-5.523-4.477-10-9.999-10z" fill="#5d8e33"/><path d="m184.071 195.684h-112.142c-1.104 0-2-.895-2-2v-21.204c0-6.617 5.383-12 12-12h92.142c6.617 0 12 5.383 12 12v21.204c0 1.105-.896 2-2 2zm-110.142-4h108.142v-19.204c0-4.411-3.589-8-8-8h-92.142c-4.411 0-8 3.589-8 8z" fill="#690589"/></svg>